<?xml version="1.0" encoding="UTF-8" standalone="no"?>
<!-- Created with Inkscape (http://www.inkscape.org/) -->

<svg
   width="40.655159mm"
   height="29.10508mm"
   viewBox="0 0 40.655159 29.10508"
   version="1.1"
   id="svg1"
   inkscape:version="1.3.2 (091e20e, 2023-11-25, custom)"
   sodipodi:docname="Zeichnung.svg"
   inkscape:export-filename="gleiche_formen.svg"
   inkscape:export-xdpi="96"
   inkscape:export-ydpi="96"
   xmlns:inkscape="http://www.inkscape.org/namespaces/inkscape"
   xmlns:sodipodi="http://sodipodi.sourceforge.net/DTD/sodipodi-0.dtd"
   xmlns="http://www.w3.org/2000/svg"
   xmlns:svg="http://www.w3.org/2000/svg">
  <sodipodi:namedview
     id="namedview1"
     pagecolor="#ffffff"
     bordercolor="#000000"
     borderopacity="0.25"
     inkscape:showpageshadow="2"
     inkscape:pageopacity="0.0"
     inkscape:pagecheckerboard="0"
     inkscape:deskcolor="#d1d1d1"
     inkscape:document-units="mm"
     inkscape:zoom="2"
     inkscape:cx="256.75"
     inkscape:cy="542"
     inkscape:window-width="1803"
     inkscape:window-height="1040"
     inkscape:window-x="1912"
     inkscape:window-y="29"
     inkscape:window-maximized="0"
     inkscape:current-layer="layer1"
     showguides="true">
    <sodipodi:guide
       position="49.414808,229.87474"
       orientation="0,-1"
       id="guide12"
       inkscape:locked="false" />
    <sodipodi:guide
       position="53.648143,241.71484"
       orientation="1,0"
       id="guide13"
       inkscape:locked="false" />
  </sodipodi:namedview>
  <defs
     id="defs1" />
  <g
     inkscape:label="Ebene 1"
     inkscape:groupmode="layer"
     id="layer1"
     transform="translate(-25.396128,-110.41015)">
    <path
       style="fill:none;stroke:#008080;stroke-width:1;stroke-dasharray:none;stroke-opacity:1"
       d="m 31.753565,114.72986 18.793462,0.7186 11.955625,-2.16561 -1.395403,10.49271 2.11891,9.76551 c -4.310655,0.92307 -7.849994,4.40232 -19.537151,1.63713 l -10.126674,0.53339 -4.880784,-10.14502 z"
       id="path2"
       sodipodi:nodetypes="ccccccccc"
       inkscape:export-filename="schrumpfen_nest.svg"
       inkscape:export-xdpi="96"
       inkscape:export-ydpi="96" />
    <path
       style="fill:none;stroke:#ff0000;stroke-width:0.5;stroke-dasharray:none;stroke-opacity:1"
       d="m 65.616666,132.29166 c -1.102049,-4.36082 -2.304171,-6.67245 -2.38125,-10.05416 -0.07708,-3.38171 3.799264,-7.09922 1.852083,-9.78959 -1.981886,-2.73832 -6.482291,-1.71978 -11.377083,-0.92603 -12.405565,2.01171 -18.238652,-3.60873 -24.077082,2.24895 -2.437382,2.44542 -1.984376,6.35 -3.968751,10.05417 1.455208,5.02708 3.704167,13.36145 6.879167,14.41979 3.175,1.05833 1.852084,1.4552 5.55625,0.39687 6.408373,-1.83096 13.894818,1.53989 20.240624,-1.05833 1.65255,-0.67662 8.689826,0.30268 7.276042,-5.29167 z"
       id="path5"
       sodipodi:nodetypes="szssscssss" />
    <text
       xml:space="preserve"
       style="font-size:7.1459px;fill:#008080;stroke:none;stroke-width:0.225068;stroke-dasharray:none;stroke-opacity:1"
       x="33.806"
       y="127.17564"
       id="text6"><tspan
         sodipodi:role="line"
         id="tspan6"
         style="fill:#008080;stroke:none;stroke-width:0.225068;stroke-dasharray:none"
         x="33.806"
         y="127.17564">Design</tspan></text>
  </g>
</svg>
