<?xml version="1.0" encoding="UTF-8" standalone="no"?>
<!-- Created with Inkscape (http://www.inkscape.org/) -->

<svg
   width="41.108616mm"
   height="30.92979mm"
   viewBox="0 0 41.108616 30.92979"
   version="1.1"
   id="svg1"
   inkscape:version="1.3.2 (091e20e, 2023-11-25, custom)"
   sodipodi:docname="Zeichnung.svg"
   inkscape:export-filename="gleiche_formen.svg"
   inkscape:export-xdpi="96"
   inkscape:export-ydpi="96"
   xmlns:inkscape="http://www.inkscape.org/namespaces/inkscape"
   xmlns:sodipodi="http://sodipodi.sourceforge.net/DTD/sodipodi-0.dtd"
   xmlns="http://www.w3.org/2000/svg"
   xmlns:svg="http://www.w3.org/2000/svg">
  <sodipodi:namedview
     id="namedview1"
     pagecolor="#ffffff"
     bordercolor="#000000"
     borderopacity="0.25"
     inkscape:showpageshadow="2"
     inkscape:pageopacity="0.0"
     inkscape:pagecheckerboard="0"
     inkscape:deskcolor="#d1d1d1"
     inkscape:document-units="mm"
     inkscape:zoom="1"
     inkscape:cx="283"
     inkscape:cy="394"
     inkscape:window-width="1346"
     inkscape:window-height="1040"
     inkscape:window-x="2341"
     inkscape:window-y="0"
     inkscape:window-maximized="0"
     inkscape:current-layer="layer1" />
  <defs
     id="defs1" />
  <g
     inkscape:label="Ebene 1"
     inkscape:groupmode="layer"
     id="layer1"
     transform="translate(-25.414582,-109.52282)">
    <path
       style="fill:none;stroke:#008080;stroke-width:1;stroke-dasharray:none;stroke-opacity:1"
       d="m 31.753565,114.72986 18.793462,0.7186 11.955625,-2.16561 -1.395403,10.49271 2.11891,9.76551 c -4.310655,0.92307 -7.849994,4.40232 -19.537151,1.63713 l -10.126674,0.53339 -4.880784,-10.14502 z"
       id="path2"
       sodipodi:nodetypes="ccccccccc"
       inkscape:export-filename="schrumpfen_nest.svg"
       inkscape:export-xdpi="96"
       inkscape:export-ydpi="96" />
    <path
       style="fill:none;stroke:#ff0000;stroke-width:0.5;stroke-dasharray:none;stroke-opacity:1"
       d="M 65.616666,132.29166 C 63.5,128.32291 63.235416,122.2375 63.235416,122.2375 c 0,0 3.799264,-7.09922 1.852083,-9.78959 -1.981886,-2.73832 -5.556249,-3.70416 -10.054166,-1.32291 -4.497916,2.38125 -3.175,2.11666 -14.552083,1.32291 -11.377083,-0.79375 -7.9375,-1.32292 -10.847916,1.32292 -2.910417,2.64583 -3.968751,5.02708 -3.968751,10.05417 0,5.02708 2.38125,12.43541 5.55625,13.49375 3.175,1.05833 3.175001,2.38124 6.879167,1.32291 3.704167,-1.05833 6.614583,-1.5875 7.14375,0.52917 0.529167,2.11666 10.847916,0.52916 12.435416,-0.79375 1.371813,-1.14318 11.203367,0.0381 7.9375,-6.08542 z"
       id="path5"
       sodipodi:nodetypes="scssssssssss" />
    <text
       xml:space="preserve"
       style="font-size:7.1459px;fill:#008080;stroke:none;stroke-width:0.225068;stroke-dasharray:none;stroke-opacity:1"
       x="33.806"
       y="127.17564"
       id="text6"><tspan
         sodipodi:role="line"
         id="tspan6"
         style="fill:#008080;stroke:none;stroke-width:0.225068;stroke-dasharray:none"
         x="33.806"
         y="127.17564">Design</tspan></text>
  </g>
</svg>
